<?xml version="1.0" encoding="UTF-8" standalone="no"?>
<!DOCTYPE svg PUBLIC "-//W3C//DTD SVG 1.1//EN" "http://www.w3.org/Graphics/SVG/1.1/DTD/svg11.dtd">
<svg xmlns="http://www.w3.org/2000/svg" version="1.1" viewBox="0.00 0.00 21.00 21.00">
<path fill="#61d66f" d="
  M 4.65 13.66
  C 0.02 7.35 6.74 -1.55 14.19 1.76
  Q 17.31 3.15 18.27 5.95
  Q 20.63 12.86 14.19 16.22
  C 12.88 16.90 12.28 18.37 11.65 19.61
  A 0.72 0.72 0.0 0 1 10.38 19.64
  L 8.87 16.95
  Q 8.62 16.51 8.14 16.33
  Q 6.06 15.57 4.65 13.66
  Z
  M 15.96 8.90
  A 4.91 4.91 0.0 0 0 11.05 3.99
  A 4.91 4.91 0.0 0 0 6.14 8.90
  A 4.91 4.91 0.0 0 0 11.05 13.81
  A 4.91 4.91 0.0 0 0 15.96 8.90
  Z"
/>
<circle fill="#61d66f" cx="11.03" cy="8.92" r="2.81"/>
</svg>
