<?xml version="1.0" encoding="UTF-8" standalone="no"?>
<!DOCTYPE svg PUBLIC "-//W3C//DTD SVG 1.1//EN" "http://www.w3.org/Graphics/SVG/1.1/DTD/svg11.dtd">
<svg xmlns="http://www.w3.org/2000/svg" version="1.1" viewBox="0.00 0.00 2502.00 837.00">
<g stroke-width="2.00" fill="none" stroke-linecap="butt">
<path stroke="#87b6da" vector-effect="non-scaling-stroke" d="
  M 2502.00 272.59
  Q 2443.50 272.58 2385.00 272.46
  Q 2364.41 272.42 2344.20 277.54
  C 2325.59 282.25 2307.97 292.88 2296.34 308.37
  Q 2286.46 321.53 2281.41 337.70
  Q 2279.05 345.26 2277.92 354.85
  Q 2269.58 425.77 2260.65 497.45
  Q 2259.14 509.60 2259.36 516.52
  C 2260.62 555.85 2289.65 579.16 2325.97 585.97
  Q 2339.02 588.42 2348.92 588.44
  Q 2407.45 588.58 2466.95 588.56
  Q 2467.71 588.56 2467.79 587.81
  L 2473.88 531.74
  Q 2473.94 531.17 2473.37 531.17
  Q 2416.77 531.15 2362.14 531.22
  C 2337.99 531.25 2323.27 519.54 2325.89 493.94
  Q 2332.30 431.51 2338.55 369.02
  Q 2339.91 355.50 2346.53 345.61
  C 2355.99 331.50 2372.51 327.45 2389.30 327.33
  Q 2442.34 326.95 2495.49 326.57
  A 0.65 0.64 3.5 0 0 2496.13 326.01
  L 2502.00 280.03"
/>
<path stroke="#b7e1bd" vector-effect="non-scaling-stroke" d="
  M 317.09 196.41
  C 340.16 245.01 370.30 290.52 404.87 331.39
  C 447.78 382.11 496.99 426.65 549.01 467.75
  C 605.23 512.16 663.98 554.52 720.03 599.92
  Q 786.44 653.72 839.47 708.71
  Q 841.70 711.02 840.50 708.04
  C 817.88 651.92 788.17 598.87 753.65 549.33
  Q 706.15 481.16 645.36 416.48
  Q 608.61 377.38 581.08 351.65
  Q 534.84 308.42 492.41 268.32
  C 445.39 223.89 399.30 177.29 358.22 129.25
  C 324.34 89.62 292.87 46.75 267.38 1.87
  Q 266.11 -0.36 266.29 2.20
  Q 273.59 104.74 317.09 196.41"
/>
<path stroke="#b7e1bd" vector-effect="non-scaling-stroke" d="
  M 271.07 195.20
  Q 242.98 128.37 230.49 57.49
  A 0.75 0.75 0.0 0 0 229.41 56.94
  Q 172.15 85.92 126.59 130.83
  C 62.98 193.54 19.93 276.80 7.54 364.98
  Q -9.32 485.04 45.14 592.45
  Q 49.51 601.06 54.90 610.24
  Q 83.53 658.93 124.52 698.67
  Q 125.53 699.65 126.43 698.57
  Q 192.18 620.08 270.25 555.78
  Q 298.70 532.35 326.31 512.06
  Q 382.85 470.50 442.59 432.43
  A 0.64 0.63 -40.1 0 0 442.68 431.42
  Q 415.37 406.78 390.42 379.59
  C 340.49 325.16 299.56 263.00 271.07 195.20"
/>
<path stroke="#b7e1bd" vector-effect="non-scaling-stroke" d="
  M 714.55 176.95
  A 103.27 103.27 0.0 0 0 611.28 73.68
  A 103.27 103.27 0.0 0 0 508.01 176.95
  A 103.27 103.27 0.0 0 0 611.28 280.22
  A 103.27 103.27 0.0 0 0 714.55 176.95"
/>
<path stroke="#87b6da" vector-effect="non-scaling-stroke" d="
  M 797.20 259.28
  Q 814.66 216.09 825.28 176.67
  Q 825.64 175.33 824.71 176.36
  Q 817.34 184.58 809.01 193.73
  C 755.80 252.21 696.64 305.48 631.45 350.45
  A 0.35 0.34 -41.5 0 0 631.41 350.98
  Q 667.18 384.06 701.51 419.42
  Q 702.37 420.31 703.14 419.35
  Q 761.72 347.05 797.20 259.28"
/>
<path stroke="#87b6da" vector-effect="non-scaling-stroke" d="
  M 1703.6452 331.6258
  A 176.20 158.47 -31.5 0 0 1470.6097 288.5721
  A 176.20 158.47 -31.5 0 0 1403.1748 515.7542
  A 176.20 158.47 -31.5 0 0 1636.2103 558.8079
  A 176.20 158.47 -31.5 0 0 1703.6452 331.6258"
/>
<path stroke="#87b6da" vector-effect="non-scaling-stroke" d="
  M 1163.41 371.34
  Q 1163.56 371.36 1163.62 371.49
  Q 1198.14 453.21 1232.65 534.83
  Q 1234.80 539.90 1236.81 545.37
  C 1241.23 557.37 1248.39 568.58 1258.09 576.61
  C 1277.57 592.75 1301.64 591.82 1317.58 571.35
  C 1328.27 557.61 1333.25 538.62 1335.23 520.38
  Q 1348.83 394.76 1362.66 266.50
  A 0.46 0.45 -86.6 0 0 1362.21 265.99
  L 1301.07 266.00
  A 0.47 0.47 0.0 0 0 1300.60 266.43
  L 1277.98 477.57
  Q 1277.77 479.57 1277.02 477.74
  Q 1244.66 398.47 1213.07 320.98
  Q 1210.90 315.65 1208.97 310.11
  C 1202.88 292.61 1191.48 276.56 1174.86 268.02
  C 1160.72 260.76 1144.34 260.63 1131.41 270.17
  C 1116.94 280.84 1111.01 299.77 1109.13 316.82
  Q 1094.65 448.12 1079.73 583.00
  Q 1079.66 583.61 1080.27 583.62
  L 1140.84 584.29
  Q 1141.74 584.30 1141.84 583.40
  L 1163.20 371.52
  Q 1163.22 371.33 1163.41 371.34"
/>
<path stroke="#87b6da" vector-effect="non-scaling-stroke" d="
  M 1034.91 525.68
  C 1048.08 503.39 1055.22 476.69 1057.52 450.61
  Q 1058.28 441.98 1059.31 433.14
  Q 1069.07 349.16 1078.76 266.00
  A 0.46 0.46 0.0 0 0 1078.30 265.49
  L 1015.04 265.50
  A 0.29 0.29 0.0 0 0 1014.75 265.76
  Q 1004.86 360.44 994.91 454.26
  C 991.98 481.85 981.43 512.59 953.17 523.59
  C 938.86 529.16 919.52 530.22 904.47 524.82
  C 885.36 517.97 880.13 497.03 879.37 479.10
  Q 878.74 464.25 880.02 452.13
  Q 889.97 358.36 899.97 265.17
  Q 900.06 264.37 899.25 264.37
  L 837.50 264.37
  A 0.43 0.43 0.0 0 0 837.07 264.76
  Q 826.15 370.85 816.87 460.27
  Q 815.54 473.02 815.63 483.74
  C 815.90 515.77 827.13 546.58 853.06 565.75
  C 883.23 588.06 927.18 591.02 961.96 581.57
  Q 1009.52 568.64 1034.91 525.68"
/>
<path stroke="#87b6da" vector-effect="non-scaling-stroke" d="
  M 2215.10 527.52
  Q 2222.70 511.74 2224.90 498.03
  C 2229.37 470.26 2215.32 445.50 2193.55 428.38
  C 2170.86 410.53 2141.79 397.58 2114.30 384.67
  C 2102.19 378.99 2071.17 363.06 2082.52 344.96
  C 2088.96 334.71 2103.55 330.95 2115.25 331.16
  C 2152.47 331.82 2189.81 331.57 2227.10 331.41
  A 0.95 0.94 -87.3 0 0 2228.04 330.55
  L 2233.46 271.79
  A 0.48 0.47 3.3 0 0 2232.99 271.27
  Q 2183.29 270.77 2134.50 270.54
  Q 2120.99 270.48 2114.52 271.04
  C 2064.61 275.33 2024.96 301.22 2016.10 352.92
  C 2009.98 388.65 2037.39 417.32 2065.50 433.31
  Q 2091.84 448.28 2122.77 460.59
  Q 2135.85 465.80 2145.00 473.24
  C 2175.00 497.65 2152.29 528.73 2120.25 528.47
  Q 2056.25 527.95 1996.34 527.70
  A 0.62 0.61 -86.9 0 0 1995.73 528.25
  L 1989.60 585.97
  Q 1989.54 586.52 1990.10 586.53
  Q 2045.81 587.30 2101.25 587.83
  C 2126.69 588.08 2153.66 583.41 2175.55 570.79
  Q 2201.46 555.84 2215.10 527.52"
/>
<path stroke="#87b6da" vector-effect="non-scaling-stroke" d="
  M 1819.04 403.56
  Q 1819.95 386.89 1821.18 369.72
  C 1822.59 350.08 1832.27 335.25 1852.21 330.21
  Q 1863.10 327.45 1874.64 327.84
  Q 1879.79 328.02 1884.87 327.98
  Q 1934.73 327.55 1980.60 327.36
  A 0.78 0.77 -87.1 0 0 1981.37 326.66
  L 1986.82 273.05
  A 0.45 0.45 0.0 0 0 1986.37 272.55
  Q 1933.84 272.43 1880.99 271.84
  Q 1869.80 271.72 1860.54 272.35
  C 1816.43 275.38 1774.96 296.44 1764.03 342.67
  Q 1762.46 349.33 1761.29 360.18
  Q 1753.36 433.50 1745.61 503.23
  Q 1744.47 513.56 1744.82 521.19
  C 1746.71 561.40 1779.80 582.87 1816.53 586.70
  Q 1822.28 587.30 1836.50 587.20
  Q 1893.30 586.82 1950.87 586.55
  A 0.90 0.90 0.0 0 0 1951.75 585.77
  L 1958.40 534.00
  Q 1958.50 533.27 1957.76 533.27
  Q 1904.40 533.20 1850.58 533.33
  C 1840.87 533.35 1832.50 532.26 1824.51 528.08
  Q 1813.50 522.32 1810.59 511.20
  Q 1809.30 506.28 1810.31 495.64
  Q 1812.01 477.56 1813.35 458.10
  A 0.91 0.90 2.0 0 1 1814.26 457.26
  L 1933.68 457.27
  A 0.77 0.77 0.0 0 0 1934.45 456.57
  L 1939.14 403.97
  Q 1939.21 403.23 1938.47 403.23
  L 1819.36 403.90
  A 0.32 0.32 0.0 0 1 1819.04 403.56"
/>
<path stroke="#87b6da" vector-effect="non-scaling-stroke" d="
  M 383.06 648.85
  Q 401.22 639.94 422.28 628.56
  Q 497.12 588.14 569.83 538.12
  Q 570.12 537.92 569.76 537.30
  A 0.77 0.57 87.1 0 0 569.62 537.13
  L 473.53 460.27
  A 0.68 0.68 0.0 0 0 472.72 460.23
  C 398.21 509.13 324.33 559.68 258.40 618.07
  Q 224.32 648.25 193.26 681.75
  Q 134.25 745.39 90.16 819.77
  Q 89.29 821.25 90.65 820.20
  C 159.90 766.91 233.08 724.20 314.22 683.16
  Q 349.18 665.48 383.06 648.85"
/>
<path stroke="#87b6da" vector-effect="non-scaling-stroke" d="
  M 234.60 775.85
  C 329.40 817.28 436.94 823.29 534.78 789.68
  C 608.87 764.22 672.78 716.69 717.23 652.28
  A 0.21 0.20 37.2 0 0 717.19 652.01
  L 603.20 563.28
  A 0.84 0.83 -44.0 0 0 602.18 563.27
  Q 588.73 573.43 574.61 582.87
  Q 537.73 607.53 495.62 631.20
  Q 444.90 659.72 388.14 688.93
  C 334.90 716.33 281.58 743.20 229.30 772.47
  A 0.60 0.60 0.0 0 0 229.35 773.55
  Q 231.98 774.71 234.60 775.85"
/>
<path stroke="#87b6da" vector-effect="non-scaling-stroke" d="
  M 1649.6820 364.9253
  A 112.79 101.44 -31.4 0 0 1500.5588 337.1058
  A 112.79 101.44 -31.4 0 0 1457.1380 482.4547
  A 112.79 101.44 -31.4 0 0 1606.2612 510.2742
  A 112.79 101.44 -31.4 0 0 1649.6820 364.9253"
/>
</g>
<path fill="#ffffff" d="
  M 0.00 0.00
  L 2502.00 0.00
  L 2502.00 272.59
  Q 2443.50 272.58 2385.00 272.46
  Q 2364.41 272.42 2344.20 277.54
  C 2325.59 282.25 2307.97 292.88 2296.34 308.37
  Q 2286.46 321.53 2281.41 337.70
  Q 2279.05 345.26 2277.92 354.85
  Q 2269.58 425.77 2260.65 497.45
  Q 2259.14 509.60 2259.36 516.52
  C 2260.62 555.85 2289.65 579.16 2325.97 585.97
  Q 2339.02 588.42 2348.92 588.44
  Q 2407.45 588.58 2466.95 588.56
  Q 2467.71 588.56 2467.79 587.81
  L 2473.88 531.74
  Q 2473.94 531.17 2473.37 531.17
  Q 2416.77 531.15 2362.14 531.22
  C 2337.99 531.25 2323.27 519.54 2325.89 493.94
  Q 2332.30 431.51 2338.55 369.02
  Q 2339.91 355.50 2346.53 345.61
  C 2355.99 331.50 2372.51 327.45 2389.30 327.33
  Q 2442.34 326.95 2495.49 326.57
  A 0.65 0.64 3.5 0 0 2496.13 326.01
  L 2502.00 280.03
  L 2502.00 837.00
  L 0.00 837.00
  L 0.00 0.00
  Z
  M 317.09 196.41
  C 340.16 245.01 370.30 290.52 404.87 331.39
  C 447.78 382.11 496.99 426.65 549.01 467.75
  C 605.23 512.16 663.98 554.52 720.03 599.92
  Q 786.44 653.72 839.47 708.71
  Q 841.70 711.02 840.50 708.04
  C 817.88 651.92 788.17 598.87 753.65 549.33
  Q 706.15 481.16 645.36 416.48
  Q 608.61 377.38 581.08 351.65
  Q 534.84 308.42 492.41 268.32
  C 445.39 223.89 399.30 177.29 358.22 129.25
  C 324.34 89.62 292.87 46.75 267.38 1.87
  Q 266.11 -0.36 266.29 2.20
  Q 273.59 104.74 317.09 196.41
  Z
  M 271.07 195.20
  Q 242.98 128.37 230.49 57.49
  A 0.75 0.75 0.0 0 0 229.41 56.94
  Q 172.15 85.92 126.59 130.83
  C 62.98 193.54 19.93 276.80 7.54 364.98
  Q -9.32 485.04 45.14 592.45
  Q 49.51 601.06 54.90 610.24
  Q 83.53 658.93 124.52 698.67
  Q 125.53 699.65 126.43 698.57
  Q 192.18 620.08 270.25 555.78
  Q 298.70 532.35 326.31 512.06
  Q 382.85 470.50 442.59 432.43
  A 0.64 0.63 -40.1 0 0 442.68 431.42
  Q 415.37 406.78 390.42 379.59
  C 340.49 325.16 299.56 263.00 271.07 195.20
  Z
  M 714.55 176.95
  A 103.27 103.27 0.0 0 0 611.28 73.68
  A 103.27 103.27 0.0 0 0 508.01 176.95
  A 103.27 103.27 0.0 0 0 611.28 280.22
  A 103.27 103.27 0.0 0 0 714.55 176.95
  Z
  M 797.20 259.28
  Q 814.66 216.09 825.28 176.67
  Q 825.64 175.33 824.71 176.36
  Q 817.34 184.58 809.01 193.73
  C 755.80 252.21 696.64 305.48 631.45 350.45
  A 0.35 0.34 -41.5 0 0 631.41 350.98
  Q 667.18 384.06 701.51 419.42
  Q 702.37 420.31 703.14 419.35
  Q 761.72 347.05 797.20 259.28
  Z
  M 1703.6452 331.6258
  A 176.20 158.47 -31.5 0 0 1470.6097 288.5721
  A 176.20 158.47 -31.5 0 0 1403.1748 515.7542
  A 176.20 158.47 -31.5 0 0 1636.2103 558.8079
  A 176.20 158.47 -31.5 0 0 1703.6452 331.6258
  Z
  M 1163.41 371.34
  Q 1163.56 371.36 1163.62 371.49
  Q 1198.14 453.21 1232.65 534.83
  Q 1234.80 539.90 1236.81 545.37
  C 1241.23 557.37 1248.39 568.58 1258.09 576.61
  C 1277.57 592.75 1301.64 591.82 1317.58 571.35
  C 1328.27 557.61 1333.25 538.62 1335.23 520.38
  Q 1348.83 394.76 1362.66 266.50
  A 0.46 0.45 -86.6 0 0 1362.21 265.99
  L 1301.07 266.00
  A 0.47 0.47 0.0 0 0 1300.60 266.43
  L 1277.98 477.57
  Q 1277.77 479.57 1277.02 477.74
  Q 1244.66 398.47 1213.07 320.98
  Q 1210.90 315.65 1208.97 310.11
  C 1202.88 292.61 1191.48 276.56 1174.86 268.02
  C 1160.72 260.76 1144.34 260.63 1131.41 270.17
  C 1116.94 280.84 1111.01 299.77 1109.13 316.82
  Q 1094.65 448.12 1079.73 583.00
  Q 1079.66 583.61 1080.27 583.62
  L 1140.84 584.29
  Q 1141.74 584.30 1141.84 583.40
  L 1163.20 371.52
  Q 1163.22 371.33 1163.41 371.34
  Z
  M 1034.91 525.68
  C 1048.08 503.39 1055.22 476.69 1057.52 450.61
  Q 1058.28 441.98 1059.31 433.14
  Q 1069.07 349.16 1078.76 266.00
  A 0.46 0.46 0.0 0 0 1078.30 265.49
  L 1015.04 265.50
  A 0.29 0.29 0.0 0 0 1014.75 265.76
  Q 1004.86 360.44 994.91 454.26
  C 991.98 481.85 981.43 512.59 953.17 523.59
  C 938.86 529.16 919.52 530.22 904.47 524.82
  C 885.36 517.97 880.13 497.03 879.37 479.10
  Q 878.74 464.25 880.02 452.13
  Q 889.97 358.36 899.97 265.17
  Q 900.06 264.37 899.25 264.37
  L 837.50 264.37
  A 0.43 0.43 0.0 0 0 837.07 264.76
  Q 826.15 370.85 816.87 460.27
  Q 815.54 473.02 815.63 483.74
  C 815.90 515.77 827.13 546.58 853.06 565.75
  C 883.23 588.06 927.18 591.02 961.96 581.57
  Q 1009.52 568.64 1034.91 525.68
  Z
  M 2215.10 527.52
  Q 2222.70 511.74 2224.90 498.03
  C 2229.37 470.26 2215.32 445.50 2193.55 428.38
  C 2170.86 410.53 2141.79 397.58 2114.30 384.67
  C 2102.19 378.99 2071.17 363.06 2082.52 344.96
  C 2088.96 334.71 2103.55 330.95 2115.25 331.16
  C 2152.47 331.82 2189.81 331.57 2227.10 331.41
  A 0.95 0.94 -87.3 0 0 2228.04 330.55
  L 2233.46 271.79
  A 0.48 0.47 3.3 0 0 2232.99 271.27
  Q 2183.29 270.77 2134.50 270.54
  Q 2120.99 270.48 2114.52 271.04
  C 2064.61 275.33 2024.96 301.22 2016.10 352.92
  C 2009.98 388.65 2037.39 417.32 2065.50 433.31
  Q 2091.84 448.28 2122.77 460.59
  Q 2135.85 465.80 2145.00 473.24
  C 2175.00 497.65 2152.29 528.73 2120.25 528.47
  Q 2056.25 527.95 1996.34 527.70
  A 0.62 0.61 -86.9 0 0 1995.73 528.25
  L 1989.60 585.97
  Q 1989.54 586.52 1990.10 586.53
  Q 2045.81 587.30 2101.25 587.83
  C 2126.69 588.08 2153.66 583.41 2175.55 570.79
  Q 2201.46 555.84 2215.10 527.52
  Z
  M 1819.04 403.56
  Q 1819.95 386.89 1821.18 369.72
  C 1822.59 350.08 1832.27 335.25 1852.21 330.21
  Q 1863.10 327.45 1874.64 327.84
  Q 1879.79 328.02 1884.87 327.98
  Q 1934.73 327.55 1980.60 327.36
  A 0.78 0.77 -87.1 0 0 1981.37 326.66
  L 1986.82 273.05
  A 0.45 0.45 0.0 0 0 1986.37 272.55
  Q 1933.84 272.43 1880.99 271.84
  Q 1869.80 271.72 1860.54 272.35
  C 1816.43 275.38 1774.96 296.44 1764.03 342.67
  Q 1762.46 349.33 1761.29 360.18
  Q 1753.36 433.50 1745.61 503.23
  Q 1744.47 513.56 1744.82 521.19
  C 1746.71 561.40 1779.80 582.87 1816.53 586.70
  Q 1822.28 587.30 1836.50 587.20
  Q 1893.30 586.82 1950.87 586.55
  A 0.90 0.90 0.0 0 0 1951.75 585.77
  L 1958.40 534.00
  Q 1958.50 533.27 1957.76 533.27
  Q 1904.40 533.20 1850.58 533.33
  C 1840.87 533.35 1832.50 532.26 1824.51 528.08
  Q 1813.50 522.32 1810.59 511.20
  Q 1809.30 506.28 1810.31 495.64
  Q 1812.01 477.56 1813.35 458.10
  A 0.91 0.90 2.0 0 1 1814.26 457.26
  L 1933.68 457.27
  A 0.77 0.77 0.0 0 0 1934.45 456.57
  L 1939.14 403.97
  Q 1939.21 403.23 1938.47 403.23
  L 1819.36 403.90
  A 0.32 0.32 0.0 0 1 1819.04 403.56
  Z
  M 383.06 648.85
  Q 401.22 639.94 422.28 628.56
  Q 497.12 588.14 569.83 538.12
  Q 570.12 537.92 569.76 537.30
  A 0.77 0.57 87.1 0 0 569.62 537.13
  L 473.53 460.27
  A 0.68 0.68 0.0 0 0 472.72 460.23
  C 398.21 509.13 324.33 559.68 258.40 618.07
  Q 224.32 648.25 193.26 681.75
  Q 134.25 745.39 90.16 819.77
  Q 89.29 821.25 90.65 820.20
  C 159.90 766.91 233.08 724.20 314.22 683.16
  Q 349.18 665.48 383.06 648.85
  Z
  M 234.60 775.85
  C 329.40 817.28 436.94 823.29 534.78 789.68
  C 608.87 764.22 672.78 716.69 717.23 652.28
  A 0.21 0.20 37.2 0 0 717.19 652.01
  L 603.20 563.28
  A 0.84 0.83 -44.0 0 0 602.18 563.27
  Q 588.73 573.43 574.61 582.87
  Q 537.73 607.53 495.62 631.20
  Q 444.90 659.72 388.14 688.93
  C 334.90 716.33 281.58 743.20 229.30 772.47
  A 0.60 0.60 0.0 0 0 229.35 773.55
  Q 231.98 774.71 234.60 775.85
  Z"
/>
<path fill="#6fc27a" d="
  M 317.09 196.41
  Q 273.59 104.74 266.29 2.20
  Q 266.11 -0.36 267.38 1.87
  C 292.87 46.75 324.34 89.62 358.22 129.25
  C 399.30 177.29 445.39 223.89 492.41 268.32
  Q 534.84 308.42 581.08 351.65
  Q 608.61 377.38 645.36 416.48
  Q 706.15 481.16 753.65 549.33
  C 788.17 598.87 817.88 651.92 840.50 708.04
  Q 841.70 711.02 839.47 708.71
  Q 786.44 653.72 720.03 599.92
  C 663.98 554.52 605.23 512.16 549.01 467.75
  C 496.99 426.65 447.78 382.11 404.87 331.39
  C 370.30 290.52 340.16 245.01 317.09 196.41
  Z"
/>
<path fill="#6fc27a" d="
  M 271.07 195.20
  C 299.56 263.00 340.49 325.16 390.42 379.59
  Q 415.37 406.78 442.68 431.42
  A 0.64 0.63 -40.1 0 1 442.59 432.43
  Q 382.85 470.50 326.31 512.06
  Q 298.70 532.35 270.25 555.78
  Q 192.18 620.08 126.43 698.57
  Q 125.53 699.65 124.52 698.67
  Q 83.53 658.93 54.90 610.24
  Q 49.51 601.06 45.14 592.45
  Q -9.32 485.04 7.54 364.98
  C 19.93 276.80 62.98 193.54 126.59 130.83
  Q 172.15 85.92 229.41 56.94
  A 0.75 0.75 0.0 0 1 230.49 57.49
  Q 242.98 128.37 271.07 195.20
  Z"
/>
<circle fill="#6fc27a" cx="611.28" cy="176.95" r="103.27"/>
<path fill="#0f6db5" d="
  M 797.20 259.28
  Q 761.72 347.05 703.14 419.35
  Q 702.37 420.31 701.51 419.42
  Q 667.18 384.06 631.41 350.98
  A 0.35 0.34 -41.5 0 1 631.45 350.45
  C 696.64 305.48 755.80 252.21 809.01 193.73
  Q 817.34 184.58 824.71 176.36
  Q 825.64 175.33 825.28 176.67
  Q 814.66 216.09 797.20 259.28
  Z"
/>
<path fill="#0f6db5" d="
  M 1703.6452 331.6258
  A 176.20 158.47 -31.5 0 1 1636.2103 558.8079
  A 176.20 158.47 -31.5 0 1 1403.1748 515.7542
  A 176.20 158.47 -31.5 0 1 1470.6097 288.5721
  A 176.20 158.47 -31.5 0 1 1703.6452 331.6258
  Z
  M 1649.6820 364.9253
  A 112.79 101.44 -31.4 0 0 1500.5588 337.1058
  A 112.79 101.44 -31.4 0 0 1457.1380 482.4547
  A 112.79 101.44 -31.4 0 0 1606.2612 510.2742
  A 112.79 101.44 -31.4 0 0 1649.6820 364.9253
  Z"
/>
<path fill="#0f6db5" d="
  M 1163.41 371.34
  Q 1163.22 371.33 1163.20 371.52
  L 1141.84 583.40
  Q 1141.74 584.30 1140.84 584.29
  L 1080.27 583.62
  Q 1079.66 583.61 1079.73 583.00
  Q 1094.65 448.12 1109.13 316.82
  C 1111.01 299.77 1116.94 280.84 1131.41 270.17
  C 1144.34 260.63 1160.72 260.76 1174.86 268.02
  C 1191.48 276.56 1202.88 292.61 1208.97 310.11
  Q 1210.90 315.65 1213.07 320.98
  Q 1244.66 398.47 1277.02 477.74
  Q 1277.77 479.57 1277.98 477.57
  L 1300.60 266.43
  A 0.47 0.47 0.0 0 1 1301.07 266.00
  L 1362.21 265.99
  A 0.46 0.45 -86.6 0 1 1362.66 266.50
  Q 1348.83 394.76 1335.23 520.38
  C 1333.25 538.62 1328.27 557.61 1317.58 571.35
  C 1301.64 591.82 1277.57 592.75 1258.09 576.61
  C 1248.39 568.58 1241.23 557.37 1236.81 545.37
  Q 1234.80 539.90 1232.65 534.83
  Q 1198.14 453.21 1163.62 371.49
  Q 1163.56 371.36 1163.41 371.34
  Z"
/>
<path fill="#0f6db5" d="
  M 1057.52 450.61
  C 1055.22 476.69 1048.08 503.39 1034.91 525.68
  Q 1009.52 568.64 961.96 581.57
  C 927.18 591.02 883.23 588.06 853.06 565.75
  C 827.13 546.58 815.90 515.77 815.63 483.74
  Q 815.54 473.02 816.87 460.27
  Q 826.15 370.85 837.07 264.76
  A 0.43 0.43 0.0 0 1 837.50 264.37
  L 899.25 264.37
  Q 900.06 264.37 899.97 265.17
  Q 889.97 358.36 880.02 452.13
  Q 878.74 464.25 879.37 479.10
  C 880.13 497.03 885.36 517.97 904.47 524.82
  C 919.52 530.22 938.86 529.16 953.17 523.59
  C 981.43 512.59 991.98 481.85 994.91 454.26
  Q 1004.86 360.44 1014.75 265.76
  A 0.29 0.29 0.0 0 1 1015.04 265.50
  L 1078.30 265.49
  A 0.46 0.46 0.0 0 1 1078.76 266.00
  Q 1069.07 349.16 1059.31 433.14
  Q 1058.28 441.98 1057.52 450.61
  Z"
/>
<path fill="#0f6db5" d="
  M 2215.10 527.52
  Q 2201.46 555.84 2175.55 570.79
  C 2153.66 583.41 2126.69 588.08 2101.25 587.83
  Q 2045.81 587.30 1990.10 586.53
  Q 1989.54 586.52 1989.60 585.97
  L 1995.73 528.25
  A 0.62 0.61 -86.9 0 1 1996.34 527.70
  Q 2056.25 527.95 2120.25 528.47
  C 2152.29 528.73 2175.00 497.65 2145.00 473.24
  Q 2135.85 465.80 2122.77 460.59
  Q 2091.84 448.28 2065.50 433.31
  C 2037.39 417.32 2009.98 388.65 2016.10 352.92
  C 2024.96 301.22 2064.61 275.33 2114.52 271.04
  Q 2120.99 270.48 2134.50 270.54
  Q 2183.29 270.77 2232.99 271.27
  A 0.48 0.47 3.3 0 1 2233.46 271.79
  L 2228.04 330.55
  A 0.95 0.94 -87.3 0 1 2227.10 331.41
  C 2189.81 331.57 2152.47 331.82 2115.25 331.16
  C 2103.55 330.95 2088.96 334.71 2082.52 344.96
  C 2071.17 363.06 2102.19 378.99 2114.30 384.67
  C 2141.79 397.58 2170.86 410.53 2193.55 428.38
  C 2215.32 445.50 2229.37 470.26 2224.90 498.03
  Q 2222.70 511.74 2215.10 527.52
  Z"
/>
<path fill="#0f6db5" d="
  M 1819.04 403.56
  A 0.32 0.32 0.0 0 0 1819.36 403.90
  L 1938.47 403.23
  Q 1939.21 403.23 1939.14 403.97
  L 1934.45 456.57
  A 0.77 0.77 0.0 0 1 1933.68 457.27
  L 1814.26 457.26
  A 0.91 0.90 2.0 0 0 1813.35 458.10
  Q 1812.01 477.56 1810.31 495.64
  Q 1809.30 506.28 1810.59 511.20
  Q 1813.50 522.32 1824.51 528.08
  C 1832.50 532.26 1840.87 533.35 1850.58 533.33
  Q 1904.40 533.20 1957.76 533.27
  Q 1958.50 533.27 1958.40 534.00
  L 1951.75 585.77
  A 0.90 0.90 0.0 0 1 1950.87 586.55
  Q 1893.30 586.82 1836.50 587.20
  Q 1822.28 587.30 1816.53 586.70
  C 1779.80 582.87 1746.71 561.40 1744.82 521.19
  Q 1744.47 513.56 1745.61 503.23
  Q 1753.36 433.50 1761.29 360.18
  Q 1762.46 349.33 1764.03 342.67
  C 1774.96 296.44 1816.43 275.38 1860.54 272.35
  Q 1869.80 271.72 1880.99 271.84
  Q 1933.84 272.43 1986.37 272.55
  A 0.45 0.45 0.0 0 1 1986.82 273.05
  L 1981.37 326.66
  A 0.78 0.77 -87.1 0 1 1980.60 327.36
  Q 1934.73 327.55 1884.87 327.98
  Q 1879.79 328.02 1874.64 327.84
  Q 1863.10 327.45 1852.21 330.21
  C 1832.27 335.25 1822.59 350.08 1821.18 369.72
  Q 1819.95 386.89 1819.04 403.56
  Z"
/>
<path fill="#0f6db5" d="
  M 2502.00 272.59
  L 2502.00 280.03
  L 2496.13 326.01
  A 0.65 0.64 3.5 0 1 2495.49 326.57
  Q 2442.34 326.95 2389.30 327.33
  C 2372.51 327.45 2355.99 331.50 2346.53 345.61
  Q 2339.91 355.50 2338.55 369.02
  Q 2332.30 431.51 2325.89 493.94
  C 2323.27 519.54 2337.99 531.25 2362.14 531.22
  Q 2416.77 531.15 2473.37 531.17
  Q 2473.94 531.17 2473.88 531.74
  L 2467.79 587.81
  Q 2467.71 588.56 2466.95 588.56
  Q 2407.45 588.58 2348.92 588.44
  Q 2339.02 588.42 2325.97 585.97
  C 2289.65 579.16 2260.62 555.85 2259.36 516.52
  Q 2259.14 509.60 2260.65 497.45
  Q 2269.58 425.77 2277.92 354.85
  Q 2279.05 345.26 2281.41 337.70
  Q 2286.46 321.53 2296.34 308.37
  C 2307.97 292.88 2325.59 282.25 2344.20 277.54
  Q 2364.41 272.42 2385.00 272.46
  Q 2443.50 272.58 2502.00 272.59
  Z"
/>
<ellipse fill="#ffffff" cx="0.00" cy="0.00" transform="translate(1553.41,423.69) rotate(-31.4)" rx="112.79" ry="101.44"/>
<path fill="#0f6db5" d="
  M 383.06 648.85
  Q 349.18 665.48 314.22 683.16
  C 233.08 724.20 159.90 766.91 90.65 820.20
  Q 89.29 821.25 90.16 819.77
  Q 134.25 745.39 193.26 681.75
  Q 224.32 648.25 258.40 618.07
  C 324.33 559.68 398.21 509.13 472.72 460.23
  A 0.68 0.68 0.0 0 1 473.53 460.27
  L 569.62 537.13
  A 0.77 0.57 87.1 0 1 569.76 537.30
  Q 570.12 537.92 569.83 538.12
  Q 497.12 588.14 422.28 628.56
  Q 401.22 639.94 383.06 648.85
  Z"
/>
<path fill="#0f6db5" d="
  M 234.60 775.85
  Q 231.98 774.71 229.35 773.55
  A 0.60 0.60 0.0 0 1 229.30 772.47
  C 281.58 743.20 334.90 716.33 388.14 688.93
  Q 444.90 659.72 495.62 631.20
  Q 537.73 607.53 574.61 582.87
  Q 588.73 573.43 602.18 563.27
  A 0.84 0.83 -44.0 0 1 603.20 563.28
  L 717.19 652.01
  A 0.21 0.20 37.2 0 1 717.23 652.28
  C 672.78 716.69 608.87 764.22 534.78 789.68
  C 436.94 823.29 329.40 817.28 234.60 775.85
  Z"
/>
</svg>
